<svg width="48" height="48" viewBox="0 0 48 48" fill="none" xmlns="http://www.w3.org/2000/svg">
<rect width="48" height="48" rx="4" fill="url(#paint0_linear_3_3091)"/>
<path d="M32 33V31C32 29.9391 31.5786 28.9217 30.8284 28.1716C30.0783 27.4214 29.0609 27 28 27H20C18.9391 27 17.9217 27.4214 17.1716 28.1716C16.4214 28.9217 16 29.9391 16 31V33" stroke="white" stroke-width="2" stroke-linecap="round" stroke-linejoin="round"/>
<path d="M24 23C26.2091 23 28 21.2091 28 19C28 16.7909 26.2091 15 24 15C21.7909 15 20 16.7909 20 19C20 21.2091 21.7909 23 24 23Z" stroke="white" stroke-width="2" stroke-linecap="round" stroke-linejoin="round"/>
<defs>
<linearGradient id="paint0_linear_3_3091" x1="-4.11406" y1="-5.6917" x2="54.0017" y2="50.1727" gradientUnits="userSpaceOnUse">
<stop stop-color="#4D0AC7"/>
<stop offset="1" stop-color="#912EF2"/>
</linearGradient>
</defs>
</svg>
