<svg width="532" height="179" viewBox="0 0 532 179" fill="none" xmlns="http://www.w3.org/2000/svg">
<path d="M0 4.66667C0 2.08934 2.08934 0 4.66667 0L525.911 0C528.981 0 531.215 2.91474 530.417 5.87994L484.735 175.547C484.186 177.584 482.339 179 480.229 179H4.66667C2.08934 179 0 176.911 0 174.333V4.66667Z" fill="url(#paint0_linear_3_1521)"/>
<path d="M45.7677 112.407V69.0135H63.8015C67.0394 69.0135 69.7494 69.4725 71.9315 70.3907C74.1276 71.3089 75.7748 72.5943 76.8728 74.247C77.985 75.8997 78.5411 77.8137 78.5411 79.9891C78.5411 81.6418 78.1962 83.1179 77.5063 84.4175C76.8165 85.7029 75.8663 86.7694 74.6556 87.6169C73.4449 88.4645 72.0441 89.0577 70.4533 89.3968V89.8205C72.199 89.9053 73.8109 90.3785 75.2891 91.2402C76.7813 92.1018 77.9779 93.3025 78.8789 94.8422C79.7799 96.3678 80.2304 98.1758 80.2304 100.266C80.2304 102.597 79.6391 104.681 78.4566 106.517C77.274 108.339 75.5636 109.78 73.3252 110.839C71.0868 111.885 68.3698 112.407 65.1741 112.407H45.7677ZM56.2205 103.953H62.6823C64.9488 103.953 66.6171 103.522 67.687 102.661C68.771 101.799 69.313 100.598 69.313 99.0587C69.313 97.9428 69.0526 96.9822 68.5317 96.1771C68.0108 95.3578 67.2717 94.7292 66.3144 94.2913C65.3571 93.8393 64.2097 93.6133 62.8723 93.6133H56.2205V103.953ZM56.2205 86.8541H62.0066C63.1469 86.8541 64.1605 86.6635 65.0474 86.2821C65.9343 85.9007 66.6241 85.3498 67.1168 84.6294C67.6236 83.909 67.877 83.0402 67.877 82.0232C67.877 80.5682 67.3632 79.4241 66.3355 78.5907C65.3078 77.7572 63.9212 77.3405 62.1755 77.3405H56.2205V86.8541Z" fill="white"/>
<path d="M87.0402 112.407V69.0135H97.493V103.89H115.485V112.407H87.0402Z" fill="white"/>
<path d="M161.815 90.7104C161.815 95.4849 160.9 99.5319 159.069 102.851C157.239 106.171 154.762 108.692 151.636 110.416C148.525 112.139 145.034 113.001 141.162 113.001C137.277 113.001 133.778 112.132 130.667 110.395C127.556 108.657 125.085 106.136 123.255 102.83C121.439 99.5107 120.531 95.4708 120.531 90.7104C120.531 85.936 121.439 81.889 123.255 78.5695C125.085 75.2499 127.556 72.7285 130.667 71.0052C133.778 69.2819 137.277 68.4202 141.162 68.4202C145.034 68.4202 148.525 69.2819 151.636 71.0052C154.762 72.7285 157.239 75.2499 159.069 78.5695C160.9 81.889 161.815 85.936 161.815 90.7104ZM151.129 90.7104C151.129 87.8853 150.728 85.4981 149.926 83.5487C149.137 81.5994 147.997 80.1233 146.505 79.1204C145.027 78.1174 143.246 77.616 141.162 77.616C139.093 77.616 137.312 78.1174 135.82 79.1204C134.327 80.1233 133.18 81.5994 132.378 83.5487C131.589 85.4981 131.195 87.8853 131.195 90.7104C131.195 93.5356 131.589 95.9228 132.378 97.8721C133.18 99.8215 134.327 101.298 135.82 102.301C137.312 103.303 139.093 103.805 141.162 103.805C143.246 103.805 145.027 103.303 146.505 102.301C147.997 101.298 149.137 99.8215 149.926 97.8721C150.728 95.9228 151.129 93.5356 151.129 90.7104Z" fill="white"/>
<path d="M198.082 83.1885C197.843 82.2986 197.491 81.5147 197.027 80.8366C196.562 80.1445 195.992 79.5583 195.316 79.078C194.64 78.5977 193.866 78.2375 192.993 77.9974C192.12 77.7431 191.163 77.616 190.121 77.616C188.024 77.616 186.208 78.1245 184.673 79.1416C183.153 80.1586 181.977 81.6418 181.147 83.5911C180.316 85.5263 179.901 87.8783 179.901 90.6469C179.901 93.4296 180.302 95.8027 181.104 97.7662C181.907 99.7297 183.068 101.227 184.589 102.258C186.109 103.289 187.953 103.805 190.121 103.805C192.036 103.805 193.655 103.494 194.978 102.873C196.316 102.237 197.329 101.34 198.019 100.182C198.709 99.0234 199.054 97.6603 199.054 96.0923L200.997 96.3254H190.48V88.6764H209.126V94.4184C209.126 98.303 208.303 101.63 206.656 104.398C205.023 107.167 202.77 109.293 199.898 110.776C197.041 112.259 193.753 113.001 190.037 113.001C185.912 113.001 182.287 112.104 179.162 110.31C176.036 108.516 173.601 105.959 171.855 102.64C170.11 99.3059 169.237 95.3507 169.237 90.774C169.237 87.2143 169.765 84.0573 170.821 81.3028C171.876 78.5341 173.347 76.1893 175.234 74.2682C177.134 72.3471 179.331 70.8922 181.822 69.9034C184.328 68.9146 187.024 68.4202 189.91 68.4202C192.416 68.4202 194.746 68.7804 196.9 69.5008C199.068 70.2212 200.982 71.2383 202.644 72.5519C204.319 73.8656 205.677 75.4265 206.719 77.2346C207.761 79.0427 208.409 81.0273 208.662 83.1885H198.082Z" fill="white"/>
<path d="M257.89 90.7104C257.89 95.4849 256.975 99.5319 255.145 102.851C253.315 106.171 250.837 108.692 247.712 110.416C244.601 112.139 241.109 113.001 237.238 113.001C233.352 113.001 229.854 112.132 226.743 110.395C223.632 108.657 221.161 106.136 219.331 102.83C217.515 99.5107 216.607 95.4708 216.607 90.7104C216.607 85.936 217.515 81.889 219.331 78.5695C221.161 75.2499 223.632 72.7285 226.743 71.0052C229.854 69.2819 233.352 68.4202 237.238 68.4202C241.109 68.4202 244.601 69.2819 247.712 71.0052C250.837 72.7285 253.315 75.2499 255.145 78.5695C256.975 81.889 257.89 85.936 257.89 90.7104ZM247.205 90.7104C247.205 87.8853 246.804 85.4981 246.001 83.5487C245.213 81.5994 244.073 80.1233 242.58 79.1204C241.102 78.1174 239.321 77.616 237.238 77.616C235.168 77.616 233.388 78.1174 231.895 79.1204C230.403 80.1233 229.256 81.5994 228.453 83.5487C227.665 85.4981 227.271 87.8853 227.271 90.7104C227.271 93.5356 227.665 95.9228 228.453 97.8721C229.256 99.8215 230.403 101.298 231.895 102.301C233.388 103.303 235.168 103.805 237.238 103.805C239.321 103.805 241.102 103.303 242.58 102.301C244.073 101.298 245.213 99.8215 246.001 97.8721C246.804 95.9228 247.205 93.5356 247.205 90.7104Z" fill="white"/>
<path d="M265.777 112.407V69.0135H276.23V103.89H294.221V112.407H265.777Z" fill="white"/>
<path d="M340.551 90.7104C340.551 95.4849 339.636 99.5319 337.806 102.851C335.976 106.171 333.498 108.692 330.373 110.416C327.262 112.139 323.77 113.001 319.899 113.001C316.014 113.001 312.515 112.132 309.404 110.395C306.293 108.657 303.822 106.136 301.992 102.83C300.176 99.5107 299.268 95.4708 299.268 90.7104C299.268 85.936 300.176 81.889 301.992 78.5695C303.822 75.2499 306.293 72.7285 309.404 71.0052C312.515 69.2819 316.014 68.4202 319.899 68.4202C323.77 68.4202 327.262 69.2819 330.373 71.0052C333.498 72.7285 335.976 75.2499 337.806 78.5695C339.636 81.889 340.551 85.936 340.551 90.7104ZM329.866 90.7104C329.866 87.8853 329.465 85.4981 328.663 83.5487C327.874 81.5994 326.734 80.1233 325.242 79.1204C323.763 78.1174 321.983 77.616 319.899 77.616C317.83 77.616 316.049 78.1174 314.556 79.1204C313.064 80.1233 311.917 81.5994 311.114 83.5487C310.326 85.4981 309.932 87.8853 309.932 90.7104C309.932 93.5356 310.326 95.9228 311.114 97.8721C311.917 99.8215 313.064 101.298 314.556 102.301C316.049 103.303 317.83 103.805 319.899 103.805C321.983 103.805 323.763 103.303 325.242 102.301C326.734 101.298 327.874 99.8215 328.663 97.8721C329.465 95.9228 329.866 93.5356 329.866 90.7104Z" fill="white"/>
<path d="M376.819 83.1885C376.58 82.2986 376.228 81.5147 375.763 80.8366C375.299 80.1445 374.729 79.5583 374.053 79.078C373.377 78.5977 372.603 78.2375 371.73 77.9974C370.857 77.7431 369.9 77.616 368.858 77.616C366.76 77.616 364.944 78.1245 363.41 79.1416C361.89 80.1586 360.714 81.6418 359.883 83.5911C359.053 85.5263 358.638 87.8783 358.638 90.6469C358.638 93.4296 359.039 95.8027 359.841 97.7662C360.644 99.7297 361.805 101.227 363.325 102.258C364.846 103.289 366.69 103.805 368.858 103.805C370.773 103.805 372.392 103.494 373.715 102.873C375.052 102.237 376.066 101.34 376.756 100.182C377.446 99.0234 377.791 97.6603 377.791 96.0923L379.733 96.3254H369.217V88.6764H387.863V94.4184C387.863 98.303 387.04 101.63 385.393 104.398C383.76 107.167 381.507 109.293 378.635 110.776C375.777 112.259 372.49 113.001 368.774 113.001C364.649 113.001 361.024 112.104 357.898 110.31C354.773 108.516 352.338 105.959 350.592 102.64C348.846 99.3059 347.973 95.3507 347.973 90.774C347.973 87.2143 348.501 84.0573 349.557 81.3028C350.613 78.5341 352.084 76.1893 353.971 74.2682C355.871 72.3471 358.067 70.8922 360.559 69.9034C363.065 68.9146 365.761 68.4202 368.647 68.4202C371.153 68.4202 373.483 68.7804 375.637 69.5008C377.805 70.2212 379.719 71.2383 381.38 72.5519C383.056 73.8656 384.414 75.4265 385.456 77.2346C386.498 79.0427 387.145 81.0273 387.399 83.1885H376.819Z" fill="white"/>
<path d="M436.627 90.7104C436.627 95.4849 435.712 99.5319 433.882 102.851C432.052 106.171 429.574 108.692 426.449 110.416C423.337 112.139 419.846 113.001 415.975 113.001C412.089 113.001 408.591 112.132 405.48 110.395C402.368 108.657 399.898 106.136 398.068 102.83C396.252 99.5107 395.343 95.4708 395.343 90.7104C395.343 85.936 396.252 81.889 398.068 78.5695C399.898 75.2499 402.368 72.7285 405.48 71.0052C408.591 69.2819 412.089 68.4202 415.975 68.4202C419.846 68.4202 423.337 69.2819 426.449 71.0052C429.574 72.7285 432.052 75.2499 433.882 78.5695C435.712 81.889 436.627 85.936 436.627 90.7104ZM425.942 90.7104C425.942 87.8853 425.541 85.4981 424.738 83.5487C423.95 81.5994 422.81 80.1233 421.317 79.1204C419.839 78.1174 418.058 77.616 415.975 77.616C413.905 77.616 412.124 78.1174 410.632 79.1204C409.14 80.1233 407.993 81.5994 407.19 83.5487C406.402 85.4981 406.008 87.8853 406.008 90.7104C406.008 93.5356 406.402 95.9228 407.19 97.8721C407.993 99.8215 409.14 101.298 410.632 102.301C412.124 103.303 413.905 103.805 415.975 103.805C418.058 103.805 419.839 103.303 421.317 102.301C422.81 101.298 423.95 99.8215 424.738 97.8721C425.541 95.9228 425.942 93.5356 425.942 90.7104Z" fill="white"/>
<defs>
<linearGradient id="paint0_linear_3_1521" x1="-41.3078" y1="-21.2253" x2="104.525" y2="356.214" gradientUnits="userSpaceOnUse">
<stop stop-color="#4D0AC7"/>
<stop offset="1" stop-color="#912EF2"/>
</linearGradient>
</defs>
</svg>
